<?xml version="1.0" standalone="no"?>
<!DOCTYPE svg PUBLIC "-//W3C//DTD SVG 20010904//EN"
 "http://www.w3.org/TR/2001/REC-SVG-20010904/DTD/svg10.dtd">
<svg version="1.0" xmlns="http://www.w3.org/2000/svg"
 width="512.000000pt" height="512.000000pt" viewBox="0 0 512.000000 512.000000"
 preserveAspectRatio="xMidYMid meet">
<metadata>
Created by potrace 1.14, written by Peter Selinger 2001-2017
</metadata>
<g transform="translate(0.000000,512.000000) scale(0.100000,-0.100000)"
fill="#000000" stroke="none">
<path d="M2029 4285 c-6 -6 -113 -33 -159 -40 -19 -3 -46 -7 -60 -10 -93 -16
-329 -23 -385 -11 -11 2 -42 7 -70 10 -27 4 -85 16 -129 27 -43 11 -80 18 -82
16 -7 -7 57 -52 113 -80 62 -32 197 -72 273 -81 64 -8 243 -8 297 -1 21 3 74
13 118 22 95 19 147 19 235 -1 36 -8 90 -18 120 -21 30 -3 69 -8 85 -10 17 -2
51 -4 77 -4 l48 -1 -1 -1272 c-1 -700 -5 -1304 -10 -1342 -14 -112 -34 -178
-87 -290 -3 -5 10 0 27 10 67 39 108 121 137 271 15 76 18 160 18 635 1 300 3
549 6 551 3 3 43 8 90 11 131 9 168 15 260 43 82 26 85 26 131 10 87 -31 185
-16 242 38 34 32 55 71 44 82 -3 3 -29 -3 -58 -12 -74 -25 -145 -26 -198 -3
-62 26 -95 28 -165 7 -95 -28 -204 -45 -280 -45 l-70 1 -1 247 c-1 136 1 252
5 258 4 7 40 14 81 16 95 5 240 30 301 52 45 16 50 15 140 -7 176 -44 354 -33
439 27 33 23 85 99 75 109 -1 2 -34 -8 -71 -22 -119 -45 -256 -62 -340 -42
-64 16 -86 23 -138 48 -54 25 -61 26 -105 14 -26 -7 -59 -17 -74 -23 -37 -15
-140 -33 -263 -46 l-50 -6 0 340 0 340 50 1 c107 2 182 11 286 35 92 21 116
22 179 8 300 -67 624 -45 786 52 49 30 104 77 104 89 0 2 -30 -5 -67 -16 -279
-82 -564 -83 -806 -3 -82 27 -110 27 -202 0 -144 -43 -358 -60 -540 -43 -93 8
-126 15 -218 43 -73 23 -128 30 -138 19z"/>
<path d="M1030 4114 c0 -3 9 -22 19 -42 19 -37 44 -116 58 -182 4 -19 8 -397
8 -840 2 -770 4 -867 26 -1024 33 -241 140 -491 291 -683 44 -54 214 -216 270
-256 248 -175 534 -258 882 -255 361 3 616 86 871 283 270 209 477 564 521
890 3 28 8 52 9 55 15 25 23 836 15 1565 -2 213 17 329 70 436 29 59 29 60 7
53 -97 -31 -141 -156 -164 -464 -7 -109 -8 -238 -2 -980 3 -503 0 -552 -47
-743 -127 -510 -537 -899 -1033 -982 -89 -15 -502 -15 -566 -1 -201 46 -407
142 -555 262 -140 112 -291 308 -369 476 -39 84 -94 250 -105 318 -3 19 -9 46
-13 60 -4 14 -8 378 -8 810 -1 432 -5 817 -9 855 -23 220 -76 359 -145 383
-17 6 -31 9 -31 6z"/>
</g>
</svg>
