<?xml version="1.0" encoding="UTF-8" standalone="no"?>
<svg
   xml:space="preserve"
   viewBox="0 0 800 800"
   version="1.1"
   id="svg4"
   sodipodi:docname="unhappy_folk_logo.svg"
   inkscape:version="1.1.1 (c3084ef, 2021-09-22)"
   xmlns:inkscape="http://www.inkscape.org/namespaces/inkscape"
   xmlns:sodipodi="http://sodipodi.sourceforge.net/DTD/sodipodi-0.dtd"
   xmlns="http://www.w3.org/2000/svg"
   xmlns:svg="http://www.w3.org/2000/svg"><defs
     id="defs8" /><sodipodi:namedview
     id="namedview6"
     pagecolor="#505050"
     bordercolor="#ffffff"
     borderopacity="1"
     inkscape:pageshadow="0"
     inkscape:pageopacity="0"
     inkscape:pagecheckerboard="1"
     showgrid="false"
     inkscape:zoom="0.69519374"
     inkscape:cx="233.74779"
     inkscape:cy="357.45431"
     inkscape:window-width="1440"
     inkscape:window-height="847"
     inkscape:window-x="0"
     inkscape:window-y="25"
     inkscape:window-maximized="1"
     inkscape:current-layer="svg4" /><path
     style="fill:#ceaa37;stroke:none;stroke-width:1.07481"
     d="m 78.646438,19.604086 c 8.630707,12.151355 24.272402,19.196902 37.618312,24.881397 37.96308,16.169458 82.14753,17.455214 122.52796,12.430827 15.29987,-1.904387 32.03023,-8.098334 47.29164,-8.098334 10.44074,0 21.89469,4.457403 32.24417,6.168411 21.56932,3.565627 43.73045,6.084384 65.56315,6.535176 v 441.745847 90.28376 c 0,40.42354 -0.79575,78.6437 -22.57088,113.92956 29.43894,-8.66294 36.83795,-52.58602 39.93448,-78.46101 3.77696,-31.56263 1.98159,-63.88323 1.98159,-95.65769 V 378.58968 c 22.47628,0 45.64282,-1.75058 67.71287,-6.23483 9.1565,-1.8609 19.57668,-8.04836 28.56403,-8.63403 7.01409,-0.45703 15.77915,5.01716 23.02682,5.95963 23.1641,3.00955 49.13922,-6.12195 53.7404,-31.93345 -15.30636,4.40758 -28.58565,11.09303 -45.14204,9.49047 -10.661,-1.03074 -23.51781,-10.53844 -33.319,-9.69366 -10.52769,0.90672 -21.82729,6.0609 -32.24416,8.34593 -20.26747,4.44422 -41.61751,6.90454 -62.33892,6.90454 v -85.98455 c 0,-6.46931 -3.1202,-24.55595 1.72283,-29.29721 3.09,-3.02638 9.41722,-1.7932 13.32423,-1.88776 9.21737,-0.2353 18.80261,-1.33053 27.94485,-2.58961 11.84547,-1.63217 23.93394,-3.19757 35.4687,-6.45211 5.68786,-1.60627 12.83425,-6.01666 18.72748,-5.83917 9.17019,0.26837 19.45712,5.34803 28.56401,7.15919 33.8199,6.72388 95.75356,10.25362 106.40606,-34.17895 -30.73418,12.79555 -58.62106,22.44206 -92.43353,15.6395 -9.10559,-1.83391 -18.39735,-4.63139 -26.87025,-8.45107 -5.17944,-2.33425 -11.36396,-7.26262 -17.19689,-7.28723 -10.78124,-0.0379 -23.78886,7.37956 -34.39375,9.89669 -20.20307,4.79472 -40.65265,6.84663 -61.26412,8.47378 V 61.522863 c 20.99975,0 42.72175,-2.099244 63.41373,-5.83012 10.82861,-1.951609 23.44594,-7.079427 34.39375,-6.787048 13.09128,0.349683 26.73585,5.183932 39.76792,6.9395 40.44408,5.448178 82.84424,7.454376 122.52813,-3.844832 19.41105,-5.526458 40.73073,-15.452365 52.66544,-32.395032 -10.82956,1.598895 -21.53274,6.183593 -32.24422,8.722727 -24.70449,5.856786 -51.96259,10.313432 -77.38601,9.502707 -21.8005,-0.695785 -44.24344,-2.300751 -65.56334,-7.353104 -12.48728,-2.959026 -28.21905,-11.206506 -40.84272,-11.247763 -10.53841,-0.03795 -22.88062,5.811626 -33.31895,7.89899 -23.26962,4.653388 -47.21835,8.001781 -70.93729,8.582854 -24.23689,0.593973 -49.38534,-1.682167 -73.08687,-6.889195 -11.4058,-2.505631 -23.99077,-8.783228 -35.46877,-9.686657 -7.26464,-0.571855 -16.58323,3.698292 -23.64565,5.441503 -13.73062,3.388349 -27.87522,6.073266 -41.91748,7.759118 -49.65517,5.96077 -95.43752,3.341887 -142.949391,-12.73118 M 53.924163,57.223705 C 84.389595,103.87118 74.345438,170.78781 74.345438,223.8187 v 180.56772 c 0,64.20022 -0.166423,124.98194 23.026767,185.94164 13.553405,35.59662 34.410075,69.55721 59.916245,97.80754 63.86489,70.73738 147.29151,99.95708 240.57403,99.95708 55.9544,0 108.60725,-9.91724 157.99668,-37.46995 68.2181,-38.05692 120.86413,-105.20206 143.99641,-179.6411 17.07624,-54.9496 16.14988,-109.71111 16.14988,-166.59521 V 219.51954 c 0,-51.92595 -8.37168,-116.94544 21.49624,-162.295835 -27.35931,0.643966 -34.25219,43.614615 -37.32615,64.488305 -10.49939,71.27488 -4.59136,146.23726 -4.59136,218.18583 0,51.14581 3.58985,103.87284 -1.25654,154.77234 -6.2661,65.80166 -33.09673,130.88274 -78.37403,179.49289 -17.09144,18.34882 -35.93823,34.56383 -56.86896,48.36291 -24.43912,16.11141 -51.40171,27.28534 -79.5358,35.01518 -38.09319,10.46669 -79.07357,8.92422 -118.22875,7.96437 -31.1083,-0.76243 -62.95356,-9.94537 -91.35879,-22.10249 -24.62919,-10.54047 -47.1669,-25.37272 -67.71272,-42.45672 -61.33725,-51.00406 -98.7059,-127.33697 -106.223175,-206.27614 -2.11278,-22.17316 -0.16643,-45.43409 -0.16643,-67.71292 V 292.60643 c 0,-59.86479 5.158005,-122.64621 -6.44991,-181.64255 C 85.644915,91.83432 78.120298,58.331037 53.941448,57.223705 Z"
     id="path365" /></svg>
