<?xml version="1.0" encoding="UTF-8" standalone="no"?>
<!-- Created with Inkscape (http://www.inkscape.org/) -->

<svg
   version="1.1"
   viewBox="0 0 514.27 513.21"
   id="svg188"
   xml:space="preserve"
   xmlns="http://www.w3.org/2000/svg"
   xmlns:svg="http://www.w3.org/2000/svg"><defs
     id="defs192"><clipPath
       clipPathUnits="userSpaceOnUse"
       id="clipPath3738"><rect
         style="fill:#ce4237;fill-opacity:1;stroke-width:24.2727;stroke-linejoin:round;stroke-miterlimit:1.4;paint-order:markers stroke fill"
         id="rect3740"
         width="637.36072"
         height="623.763"
         x="-2040.2589"
         y="-92.879684" /></clipPath><clipPath
       clipPathUnits="userSpaceOnUse"
       id="clipPath3798"><rect
         style="fill:#ce4237;fill-opacity:1;stroke-width:31.4261;stroke-linejoin:round;stroke-miterlimit:1.4;paint-order:markers stroke fill"
         id="rect3800"
         width="610.29822"
         height="507.66599"
         x="-2025.858"
         y="23.217327" /></clipPath><clipPath
       clipPathUnits="userSpaceOnUse"
       id="clipPath3812"><rect
         style="fill:#ce4237;fill-opacity:1;stroke-width:58.9668;stroke-linejoin:round;stroke-miterlimit:1.4;paint-order:markers stroke fill"
         id="rect3814"
         width="585.52905"
         height="724.18536"
         x="-2009.3011"
         y="-17.713453" /></clipPath></defs><g
     id="g345"
     transform="translate(-1542.748,629.42399)"><g
       id="g7483"
       transform="matrix(0.50494615,0,0,0.50494615,2095.0166,-906.25891)"><g
         id="g7391"
         transform="matrix(0.94419847,0,0,0.94419847,-15.123138,1004.1261)"><path
           style="fill:#ceaa37;stroke:none;stroke-width:1.07481"
           d="m -946.5209,-311.94088 c 30.4654,46.64748 20.4213,113.56411 20.4213,166.595 V 35.22184 c 0,64.20022 -0.1665,124.98194 23.0267,185.94164 13.5534,35.59662 34.4101,69.55721 59.9163,97.80754 63.8649,70.73738 147.2915,99.95713 240.574,99.95713 55.9544,0 108.6073,-9.9173 157.9967,-37.47 68.2181,-38.05692 120.8641,-105.20206 143.9964,-179.6411 17.0762,-54.9496 16.1499,-109.71111 16.1499,-166.59521 v -184.86688 c 0,-51.92595 -8.3717,-116.94544 21.4962,-162.29584 -27.3593,0.64397 -34.2522,43.61462 -37.3261,64.48831 -10.4994,71.27488 -4.5914,146.23726 -4.5914,218.18583 0,51.14581 3.5899,103.87284 -1.2565,154.77234 -6.2661,65.80166 -33.0968,130.88274 -78.3741,179.49289 -17.0914,18.34882 -35.9382,34.56383 -56.8689,48.36291 -24.4391,16.11141 -51.4017,27.28534 -79.5358,35.01518 -38.0932,10.46669 -79.0736,8.92422 -118.2288,7.96437 -31.1083,-0.76243 -62.9535,-9.94537 -91.3588,-22.10249 -24.6292,-10.54047 -47.1669,-25.37272 -67.7127,-42.45672 -61.3372,-51.00406 -98.7059,-127.33697 -106.2232,-206.27614 -2.1127,-22.17316 -0.1664,-45.43409 -0.1664,-67.71292 V -76.55815 c 0,-41.38511 2.4651,-84.1641 0.1519,-126.12285 -1.0329,-18.73582 -3.0185,-37.3081 -6.6018,-55.5197 -3.7642,-19.12956 -11.2888,-52.63284 -35.4676,-53.74018 z"
           id="path536" /><path
           d="m -923.41083,-316.776 c 8.63071,12.15136 24.2724,19.19691 37.61832,24.8814 37.96308,16.16946 82.14753,17.45521 122.52796,12.43083 15.29987,-1.90439 32.03023,-8.09834 47.29164,-8.09834 10.44074,0 21.89469,4.45741 32.24417,6.16841 21.56932,3.56563 43.73045,6.08439 65.56315,6.53518 v 441.74585 90.28376 c 0,40.42354 -0.79575,78.6437 -22.57088,113.92956 29.43894,-8.66294 36.83795,-52.58602 39.93448,-78.46101 3.77696,-31.56263 1.98159,-63.88323 1.98159,-95.65769 V 42.209604 c 22.47628,0 45.64282,-1.75058 67.71287,-6.23483 9.1565,-1.8609 19.57668,-8.04836 28.56403,-8.63403 7.01409,-0.45703 15.77915,5.01716 23.02682,5.95963 23.1641,3.00955 49.13922,-6.12195 53.7404,-31.93345 -15.30636,4.40758 -28.58565,11.09303 -45.14204,9.49047 -10.661,-1.03074 -23.51781,-10.53844 -33.319,-9.69366 -10.52769,0.90672 -21.82729,6.0609 -32.24416,8.34593 -20.26747,4.44422 -41.61751,6.90454 -62.33892,6.90454 v -85.98455 c 0,-6.469312 -3.1202,-24.555952 1.72283,-29.297212 3.09,-3.026382 9.41722,-1.793202 13.32423,-1.887762 9.21737,-0.2353 18.80261,-1.33053 27.94485,-2.58961 11.84547,-1.63217 23.93394,-3.19757 35.4687,-6.45211 5.68786,-1.60627 12.83425,-6.01666 18.72748,-5.83917 9.17019,0.26837 19.45712,5.34803 28.56401,7.15919 17.17502,3.41464 41.60055,6.00551 62.87817,1.9093 20.62085,-3.96978 38.28513,-14.22021 43.52789,-36.08825 -30.73418,12.79555 -58.62106,22.44206 -92.43353,15.6395 -9.10559,-1.83391 -18.39735,-4.63139 -26.87025,-8.45107 -5.17944,-2.33425 -11.36396,-7.26262 -17.19689,-7.28723 -10.78124,-0.0379 -23.78886,7.37956 -34.39375,9.89669 -20.20307,4.79472 -40.65265,6.84663 -61.26412,8.47378 v -150.47292 c 20.99975,0 42.72175,-2.09924 63.41373,-5.83012 10.82861,-1.95161 23.44594,-7.07943 34.39375,-6.78705 13.09128,0.34969 26.73585,5.18393 39.76792,6.9395 40.44408,5.44818 82.84424,7.45438 122.52813,-3.84483 19.41105,-5.52646 40.73073,-15.45236 52.66544,-32.39503 -10.82956,1.59889 -21.53274,6.18359 -32.24422,8.72273 -24.70449,5.85678 -51.96259,10.31343 -77.38601,9.5027 -21.8005,-0.69578 -44.24344,-2.30075 -65.56334,-7.3531 -12.48728,-2.95903 -28.21905,-11.20651 -40.84272,-11.24776 -10.53841,-0.0379 -22.88062,5.81162 -33.31895,7.89899 -23.26962,4.65338 -47.21835,8.00178 -70.93729,8.58285 -24.23689,0.59397 -49.38534,-1.68217 -73.08687,-6.8892 -11.4058,-2.50563 -23.99077,-8.78322 -35.46877,-9.68665 -7.26464,-0.57186 -16.58323,3.69829 -23.64565,5.4415 -13.73062,3.38835 -27.87522,6.07327 -41.91748,7.75912 -49.65517,5.96077 -95.43752,3.34189 -142.9494,-12.73118 z"
           id="path1106"
           class="UnoptimicedTransforms" /><path
           style="fill:#ceaa37;stroke:none;stroke-width:1.07481"
           d="m -853.90283,-310.32545 c 8.63071,12.15136 24.2724,19.19691 37.61832,24.8814 37.96308,16.16946 82.14753,17.45521 122.52796,12.43083 15.29987,-1.90439 32.03023,-8.09834 47.29164,-8.09834 10.44074,0 21.89469,4.45741 32.24417,6.16841 21.56932,3.56563 43.73045,6.08439 65.56315,6.53518 v 441.74585 90.28376 c 0,40.42354 -0.79575,78.6437 -22.57088,113.92956 29.43894,-8.66294 36.83795,-52.58602 39.93448,-78.46101 3.77696,-31.56263 1.98159,-63.88323 1.98159,-95.65769 V 48.660154 c 22.47628,0 45.64282,-1.75058 67.71287,-6.23483 9.1565,-1.8609 19.57668,-8.04836 28.56403,-8.63403 7.01409,-0.45703 15.77915,5.01716 23.02682,5.95963 23.1641,3.00955 49.13922,-6.12195 53.7404,-31.93345 -15.30636,4.40758 -28.58565,11.09303 -45.14204,9.49047 -10.661,-1.03074 -23.51781,-10.53844 -33.319,-9.69366 -10.52769,0.90672 -21.82729,6.0609 -32.24416,8.34593 -20.26747,4.44422 -41.61751,6.90454 -62.33892,6.90454 v -85.98455 c 0,-6.469312 -3.1202,-24.555952 1.72283,-29.297212 3.09,-3.02638 9.41722,-1.7932 13.32423,-1.88776 9.21737,-0.2353 18.80261,-1.33053 27.94485,-2.58961 11.84547,-1.63217 23.93394,-3.197572 35.4687,-6.452112 5.68786,-1.60627 12.83425,-6.01666 18.72748,-5.83917 9.17019,0.26837 19.45712,5.34803 28.56401,7.15919 17.17502,3.41464 41.60055,6.005515 62.87817,1.9093 20.62085,-3.96978 38.28513,-14.22021 43.52789,-36.08825 -30.73418,12.79555 -58.62106,22.44206 -92.43353,15.6395 -9.10559,-1.83391 -18.39735,-4.63139 -26.87025,-8.45107 -5.17944,-2.33425 -11.36396,-7.26262 -17.19689,-7.28723 -10.78124,-0.0379 -23.78886,7.37956 -34.39375,9.89669 -20.20307,4.79472 -40.65265,6.84663 -61.26412,8.47378 v -150.47292 c 20.99975,0 42.72175,-2.09924 63.41373,-5.83012 10.82861,-1.95161 23.44594,-7.07943 34.39375,-6.78705 13.09128,0.34969 26.73585,5.18393 39.76792,6.9395 40.44408,5.44818 82.84424,7.45438 122.52813,-3.84483 19.41105,-5.52646 40.73073,-15.45236 52.66544,-32.39503 -10.82956,1.59889 -21.53274,6.18359 -32.24422,8.72273 -24.70449,5.85678 -51.96259,10.31343 -77.38601,9.5027 -21.8005,-0.69578 -44.24344,-2.30075 -65.56334,-7.3531 -12.48728,-2.95903 -28.21905,-11.20651 -40.84272,-11.24776 -10.53841,-0.0379 -22.88062,5.81162 -33.31895,7.89899 -23.26962,4.65338 -47.21835,8.00178 -70.93729,8.58285 -24.23689,0.59397 -49.38534,-1.68217 -73.08687,-6.8892 -11.4058,-2.50563 -23.99077,-8.78322 -35.46877,-9.68665 -7.26464,-0.57186 -16.58323,3.69829 -23.64565,5.4415 -13.73062,3.38835 -27.87522,6.07327 -41.91748,7.75912 -49.65517,5.96077 -95.43752,3.34189 -142.9494,-12.73118"
           transform="translate(-69.508,-6.45055)"
           id="path1102"
           class="UnoptimicedTransforms" /><path
           style="fill:#ceaa37;fill-opacity:0.257282;stroke:none;stroke-width:1.07481"
           d="m -1402.8999,512.82308 c -8.6307,-12.15136 -24.2724,-19.19691 -37.6183,-24.8814 -37.9631,-16.16946 -82.1476,-17.45521 -122.528,-12.43083 -15.2999,1.90439 -32.0302,8.09834 -47.2916,8.09834 -10.4408,0 -21.8947,-4.45741 -32.2442,-6.16841 -21.5693,-3.56563 -43.7305,-6.08439 -65.5632,-6.53518 V 29.159747 -61.124013 c 0,-25.881955 0.3262,-50.860647 6.2764,-74.744227 3.343,-13.41881 8.4613,-26.49193 16.2945,-39.18533 -29.4389,8.66294 -36.8379,52.58602 -39.9345,78.461007 -3.7769,31.56263 -1.9815,63.88323 -1.9815,95.65769024 V 153.83748 c -16.5481,0 -33.4704,0.94892 -50.0538,3.2391 -5.9408,0.82043 -11.8381,1.813 -17.6591,2.99573 -9.1565,1.8609 -19.5767,8.04836 -28.564,8.63403 -7.0141,0.45703 -15.7792,-5.01716 -23.0269,-5.95963 -23.1641,-3.00955 -49.1392,6.12195 -53.7404,31.93345 15.3064,-4.40758 28.5857,-11.09303 45.1421,-9.49047 10.661,1.03074 23.5178,10.53844 33.319,9.69366 10.5277,-0.90672 21.8273,-6.0609 32.2441,-8.34593 20.2675,-4.44422 41.6175,-6.90454 62.339,-6.90454 v 85.98455 c 0,6.46931 3.1202,24.55595 -1.7229,29.29721 -3.09,3.02638 -9.4172,1.7932 -13.3242,1.88776 -9.2174,0.2353 -18.8026,1.33053 -27.9449,2.58961 -11.8454,1.63217 -23.9339,3.19757 -35.4687,6.45211 -5.6878,1.60627 -12.8342,6.01666 -18.7274,5.83917 -9.1702,-0.26837 -19.4572,-5.34803 -28.564,-7.15919 -17.1751,-3.41464 -41.6006,-6.00552 -62.8782,-1.9093 -20.6209,3.96978 -38.2851,14.22021 -43.5279,36.08825 30.7342,-12.79555 58.6211,-22.44206 92.4335,-15.6395 9.1056,1.83391 18.3974,4.63139 26.8703,8.45107 5.1794,2.33425 11.3639,7.26262 17.1969,7.28723 10.7812,0.0379 23.7888,-7.37956 34.3937,-9.89669 20.2031,-4.79472 40.6527,-6.84663 61.2641,-8.47378 V 470.9043 c -20.9997,0 -42.7217,2.09924 -63.4137,5.83012 -10.8286,1.95161 -23.4459,7.07943 -34.3937,6.78705 -13.0913,-0.34969 -26.7359,-5.18393 -39.768,-6.9395 -40.444,-5.44818 -82.8442,-7.45438 -122.5281,3.84483 -19.411,5.52646 -40.7307,15.45236 -52.6654,32.39503 10.8295,-1.59889 21.5327,-6.18359 32.2442,-8.72273 24.7045,-5.85678 51.9626,-10.31343 77.386,-9.5027 21.8005,0.69578 44.2434,2.30075 65.5633,7.3531 12.4873,2.95903 28.2191,11.20651 40.8428,11.24776 10.5384,0.0379 22.8806,-5.81162 33.3189,-7.89899 23.2696,-4.65338 47.2184,-8.00178 70.9373,-8.58285 24.2369,-0.59397 49.3853,1.68217 73.0869,6.8892 11.4058,2.50563 23.9907,8.78322 35.4687,9.68665 7.2647,0.57186 16.5833,-3.69829 23.6457,-5.4415 13.7306,-3.38835 27.8752,-6.07327 41.9175,-7.75912 49.6551,-5.96077 95.4375,-3.34189 142.9494,12.73118"
           id="path3802"
           clip-path="url(#clipPath3812)"
           transform="translate(1109.7986,-277.92766)" /></g></g><rect
       style="fill:#000000;fill-opacity:0.970874;stroke-width:29.4387;stroke-linejoin:round;stroke-miterlimit:1.4;paint-order:markers stroke fill"
       id="rect3868"
       width="815.04034"
       height="896.54443"
       x="3703.1633"
       y="-1409.1305" /><g
       id="layer1"
       transform="translate(-228.85556,-768.11233)" /><path
       style="fill:#ceaa37;fill-opacity:0.231707;stroke:none;stroke-width:1.07481"
       d="m -1402.8999,512.82308 c -8.6307,-12.15136 -24.2724,-19.19691 -37.6183,-24.8814 -37.9631,-16.16946 -82.1476,-17.45521 -122.528,-12.43083 -15.2999,1.90439 -32.0302,8.09834 -47.2916,8.09834 -10.4408,0 -21.8947,-4.45741 -32.2442,-6.16841 -21.5693,-3.56563 -43.7305,-6.08439 -65.5632,-6.53518 V 29.159747 -61.124013 c 0,-25.881955 0.3262,-50.860647 6.2764,-74.744227 3.343,-13.41881 8.4613,-26.49193 16.2945,-39.18533 -29.4389,8.66294 -36.8379,52.58602 -39.9345,78.461007 -3.7769,31.56263 -1.9815,63.88323 -1.9815,95.65769024 V 153.83748 c -16.5481,0 -33.4704,0.94892 -50.0538,3.2391 -5.9408,0.82043 -11.8381,1.813 -17.6591,2.99573 -9.1565,1.8609 -19.5767,8.04836 -28.564,8.63403 -7.0141,0.45703 -15.7792,-5.01716 -23.0269,-5.95963 -23.1641,-3.00955 -49.1392,6.12195 -53.7404,31.93345 15.3064,-4.40758 28.5857,-11.09303 45.1421,-9.49047 10.661,1.03074 23.5178,10.53844 33.319,9.69366 10.5277,-0.90672 21.8273,-6.0609 32.2441,-8.34593 20.2675,-4.44422 41.6175,-6.90454 62.339,-6.90454 v 85.98455 c 0,6.46931 3.1202,24.55595 -1.7229,29.29721 -3.09,3.02638 -9.4172,1.7932 -13.3242,1.88776 -9.2174,0.2353 -18.8026,1.33053 -27.9449,2.58961 -11.8454,1.63217 -23.9339,3.19757 -35.4687,6.45211 -5.6878,1.60627 -12.8342,6.01666 -18.7274,5.83917 -9.1702,-0.26837 -19.4572,-5.34803 -28.564,-7.15919 -17.1751,-3.41464 -41.6006,-6.00552 -62.8782,-1.9093 -20.6209,3.96978 -38.2851,14.22021 -43.5279,36.08825 30.7342,-12.79555 58.6211,-22.44206 92.4335,-15.6395 9.1056,1.83391 18.3974,4.63139 26.8703,8.45107 5.1794,2.33425 11.3639,7.26262 17.1969,7.28723 10.7812,0.0379 23.7888,-7.37956 34.3937,-9.89669 20.2031,-4.79472 40.6527,-6.84663 61.2641,-8.47378 V 470.9043 c -20.9997,0 -42.7217,2.09924 -63.4137,5.83012 -10.8286,1.95161 -23.4459,7.07943 -34.3937,6.78705 -13.0913,-0.34969 -26.7359,-5.18393 -39.768,-6.9395 -40.444,-5.44818 -82.8442,-7.45438 -122.5281,3.84483 -19.411,5.52646 -40.7307,15.45236 -52.6654,32.39503 10.8295,-1.59889 21.5327,-6.18359 32.2442,-8.72273 24.7045,-5.85678 51.9626,-10.31343 77.386,-9.5027 21.8005,0.69578 44.2434,2.30075 65.5633,7.3531 12.4873,2.95903 28.2191,11.20651 40.8428,11.24776 10.5384,0.0379 22.8806,-5.81162 33.3189,-7.89899 23.2696,-4.65338 47.2184,-8.00178 70.9373,-8.58285 24.2369,-0.59397 49.3853,1.68217 73.0869,6.8892 11.4058,2.50563 23.9907,8.78322 35.4687,9.68665 7.2647,0.57186 16.5833,-3.69829 23.6457,-5.4415 13.7306,-3.38835 27.8752,-6.07327 41.9175,-7.75912 49.6551,-5.96077 95.4375,-3.34189 142.9494,12.73118"
       id="path2228"
       clip-path="url(#clipPath3798)"
       transform="translate(-228.85556,-768.11233)" /></g></svg>
